<svg width="309" height="47" viewBox="0 0 309 47" fill="none" xmlns="http://www.w3.org/2000/svg">
<path d="M223.781 14.4443H221.686L220.194 11.9388H215.484L216.306 10.5287H219.359L217.141 6.80467L212.623 14.4443H210.637L216.36 4.9153C216.566 4.57303 216.826 4.35397 217.209 4.35397C217.593 4.35397 217.839 4.57303 218.044 4.9153L223.781 14.4443ZM233.286 14.4443H224.852V4.49088H226.591V12.7055H233.286V14.4443ZM245.088 14.4443H239.078C236.299 14.4443 234.245 12.2537 234.245 9.36491C234.245 6.43501 236.299 4.49088 239.078 4.49088H244.472V6.22965H239.078C237.298 6.22965 235.984 7.55768 235.984 9.44706C235.984 11.3227 237.284 12.7055 239.078 12.7055H243.336V10.1179H238.845V8.65297H245.088V14.4443ZM255.585 14.4443H246.686V4.49088H255.571V6.22965H248.411V12.7055H255.585V14.4443ZM255.202 10.1179H249.684V8.65297H255.202V10.1179ZM268.78 14.4443H266.316L263.797 11.6787H260.073V10.1453H264.221C265.467 10.1453 266.124 9.43336 266.124 8.1464C266.124 6.85944 265.412 6.22965 264.221 6.22965H258.8V14.4443H257.075V4.49088H264.221C266.494 4.49088 267.836 5.90106 267.836 8.11902C267.836 9.76195 267.069 10.9257 265.782 11.4186L268.78 14.4443ZM271.517 14.4443H269.779V4.49088H271.517V14.4443ZM285.805 14.4443H283.711L282.218 11.9388H277.509L278.33 10.5287H281.383L279.165 6.80467L274.647 14.4443H272.662L278.385 4.9153C278.59 4.57303 278.85 4.35397 279.234 4.35397C279.617 4.35397 279.863 4.57303 280.069 4.9153L285.805 14.4443ZM220.659 30.0336L219.126 27.1174L217.579 30.0336C217.387 30.4032 217.045 30.5812 216.689 30.5812C216.306 30.5812 215.991 30.4032 215.785 30.0336L210.637 20.4909H212.719L216.744 28.1442L218.25 25.4334L215.662 20.4909H217.757L221.604 28.1442L225.657 20.4909H227.601L222.453 30.0336C222.248 30.4032 221.919 30.5812 221.549 30.5812C221.18 30.5812 220.851 30.4032 220.659 30.0336ZM234.308 30.4443H231.885C229.105 30.4443 227.052 28.2537 227.052 25.3649C227.052 22.435 229.105 20.4909 231.885 20.4909H234.308C237.183 20.4909 239.182 22.4761 239.182 25.3649C239.182 28.2537 237.142 30.4443 234.308 30.4443ZM231.885 28.7055H234.308C236.143 28.7055 237.443 27.3227 237.443 25.4471C237.443 23.5714 236.143 22.2296 234.308 22.2296H231.885C230.105 22.2296 228.79 23.5577 228.79 25.4471C228.79 27.3227 230.091 28.7055 231.885 28.7055ZM252.295 30.4443H249.831L247.311 27.6787H243.587V26.1453H247.736C248.982 26.1453 249.639 25.4334 249.639 24.1464C249.639 22.8594 248.927 22.2296 247.736 22.2296H242.314V30.4443H240.589V20.4909H247.736C250.009 20.4909 251.35 21.9011 251.35 24.119C251.35 25.762 250.584 26.9257 249.297 27.4186L252.295 30.4443ZM261.631 30.4443H253.197V20.4909H254.936V28.7055H261.631V30.4443ZM268.641 30.4443H262.877V20.4909H268.641C271.448 20.4909 273.488 22.4761 273.488 25.3649C273.488 28.2537 271.448 30.4443 268.641 30.4443ZM264.602 28.7055H268.641C270.435 28.7055 271.749 27.3227 271.749 25.4471C271.749 23.5714 270.435 22.2296 268.641 22.2296H264.602V28.7055ZM220.208 46.4443H211.308V36.4909H220.194V38.2296H213.033V44.7055H220.208V46.4443ZM219.824 42.1179H214.307V40.653H219.824V42.1179ZM234.142 46.4443H231.705L227.529 42.378L223.395 46.4443H221.136L226.475 41.2691L221.519 36.4909H223.915L227.707 40.1738L231.445 36.4909H233.704L228.748 41.2691L234.142 46.4443ZM242.384 43.6787H238.386V41.9947H242.384C243.603 41.9947 244.328 41.228 244.328 40.1053C244.328 38.9553 243.603 38.2296 242.384 38.2296H237.113V46.4443H235.388V36.4909H242.384C244.684 36.4909 246.026 37.8737 246.026 40.0506C246.026 42.2001 244.684 43.6787 242.384 43.6787ZM254.23 46.4443H251.806C249.027 46.4443 246.973 44.2537 246.973 41.3649C246.973 38.435 249.027 36.4909 251.806 36.4909H254.23C257.105 36.4909 259.104 38.4761 259.104 41.3649C259.104 44.2537 257.064 46.4443 254.23 46.4443ZM251.806 44.7055H254.23C256.064 44.7055 257.365 43.3227 257.365 41.4471C257.365 39.5714 256.064 38.2296 254.23 38.2296H251.806C250.026 38.2296 248.712 39.5577 248.712 41.4471C248.712 43.3227 250.013 44.7055 251.806 44.7055ZM272.217 46.4443H269.752L267.233 43.6787H263.509V42.1453H267.657C268.903 42.1453 269.561 41.4334 269.561 40.1464C269.561 38.8594 268.849 38.2296 267.657 38.2296H262.236V46.4443H260.511V36.4909H267.657C269.93 36.4909 271.272 37.9011 271.272 40.119C271.272 41.762 270.505 42.9257 269.218 43.4186L272.217 46.4443ZM277.834 46.4443H276.095V38.2296H272.316V36.4909H281.612V38.2296H277.834V46.4443Z" fill="white"/>
<g clip-path="url(#clip0_51_1815)">
<path d="M106.147 1.02151L104.409 1.02991L104.39 5.70544C104.966 5.62148 105.561 5.62148 106.137 5.70544L106.147 1.02151ZM98.7541 3.12843C99.7141 11.3421 99.9255 19.0059 97.9861 25.1335C95.9604 31.6138 91.381 36.3901 83.105 37.9094L83.0906 40.5788L95.6627 40.5871C98.399 38.0522 100.262 33.9307 101.346 30.0777C102.489 26.1157 102.873 22.4056 102.854 21.1884L102.873 21.18C102.873 19.8621 102.834 16.4877 102.633 13.13C102.537 11.4596 102.393 9.78916 102.182 8.41253C102.009 7.09884 101.721 6.0244 101.49 5.52915L98.7541 3.12843ZM111.648 3.23757L108.921 5.61309C108.72 6.09157 108.48 7.14083 108.297 8.42931C108.124 9.80595 107.99 11.4596 107.894 13.1216C107.712 16.4541 107.683 19.8369 107.683 21.18L107.673 21.1884C107.673 22.3971 108.048 26.1073 109.18 30.0609C110.285 33.9222 112.104 37.8039 114.84 40.3475L127.451 39.8678V37.8926C119.156 36.3733 114.566 31.6055 112.531 25.1505C110.582 19.0311 110.746 11.4008 111.648 3.23757ZM105.321 7.15762C104.755 7.14922 104.198 7.24995 103.785 7.4514C103.833 7.70322 103.862 7.95086 103.91 8.21947C103.977 8.68114 104.034 9.16799 104.082 9.66326L106.425 9.67165C106.473 9.17639 106.521 8.70632 106.579 8.25305C106.617 7.96764 106.665 7.69483 106.704 7.42621C106.31 7.24995 105.82 7.15762 105.321 7.15762ZM104.227 11.1826C104.265 11.5687 104.294 11.9632 104.313 12.3578H106.204C106.233 11.9632 106.262 11.5771 106.291 11.191L104.227 11.1826ZM104.409 13.8771C104.563 16.9158 104.601 19.8117 104.601 21.096H105.945C105.945 19.8201 105.974 16.9242 106.118 13.8855L104.409 13.8771ZM104.515 22.6069C104.486 22.9512 104.457 23.3289 104.409 23.7401V40.5703H106.118V23.6646C106.07 23.2784 106.041 22.9259 106.003 22.5987L104.515 22.6069ZM107.865 31.597V40.5621H109.209L109.19 35.131C108.662 33.9642 108.23 32.7723 107.865 31.597ZM102.662 31.6557C102.297 32.8226 101.846 34.0146 101.337 35.1645V40.5621H102.662V31.6557Z" fill="#0582FE"/>
<path fill-rule="evenodd" clip-rule="evenodd" d="M6.12967 26.2747C3.59517 32.6048 1.1412 38.7338 0 41.802H12.1427C13.3927 41.802 14.226 41.2815 14.6426 40.2407L17.4997 33.0067H37.5589L36.2624 36.0971L47.0424 29.2943L41.9111 21.9451L40.4756 25.6168H20.4164L23.8092 17.0818L21.4283 15.2083C20.9521 14.844 21.1902 14.1675 21.8449 14.1675H43.2137C44.4041 14.1675 44.8207 14.5838 44.4637 15.4165L42.7023 19.9213L49.9319 29.5571L35.152 38.7431L33.8685 41.802H46.1898C47.4397 41.802 48.2732 41.2815 48.6898 40.2407C51.0707 33.8395 60.2372 10.1602 62.1418 5.37228H9.82127C9.16652 5.37228 8.92844 6.04884 9.46415 6.41313L13.095 8.59891C11.7314 12.2842 8.88299 19.3982 6.12967 26.2747Z" fill="#0582FE"/>
<path d="M147.983 41.7586C144.114 41.7586 141.316 38.3759 142.626 35.1491L153.042 8.50348C152.864 8.24327 151.078 7.20242 149.59 6.36974C149.054 6.00544 149.292 5.32889 149.947 5.32889H197.208L194.351 12.5628C193.934 13.5516 192.982 14.1241 191.851 14.1241H160.721C160.066 14.1241 159.828 14.8006 160.304 15.1649L163.518 17.715L162.626 19.8487H182.982L180.661 25.6775C180.244 26.6662 179.292 27.2388 178.161 27.2388H156.911C156.257 27.2388 156.018 27.8632 156.435 28.2275L158.637 29.997L157.447 32.9635H186.316L183.399 40.1973C182.982 41.2382 182.149 41.7586 180.899 41.7586H147.983Z" fill="#0582FE"/>
<path d="M95.7568 40.5869L82.5924 5.33757L65.4512 5.69726C63.9433 6.53647 69.7022 8.33496 69.7022 8.33496L81.084 40.5869H95.7568Z" fill="#0582FE"/>
<path d="M130.132 40.1372C132.038 36.5652 143.766 5.43364 143.504 5.20478C143.268 4.99792 132.318 5.14791 129.313 5.19306C128.854 5.19994 128.465 5.43455 128.314 5.81338C126.457 10.4664 114.591 40.233 114.844 40.4542C115.091 40.6696 127.044 40.4984 129.493 40.461C129.777 40.4566 130.012 40.3622 130.132 40.1372Z" fill="#0582FE"/>
</g>
<defs>
<clipPath id="clip0_51_1815">
<rect width="197.441" height="41.1411" fill="white" transform="translate(0 0.823807)"/>
</clipPath>
</defs>
</svg>
