<svg width="146" height="31" viewBox="0 0 146 31" fill="none" xmlns="http://www.w3.org/2000/svg">
<g clip-path="url(#clip0_52_1515)">
<path d="M78.6151 0.22168L77.3382 0.227848L77.3241 3.66356C77.7474 3.60186 78.1847 3.60186 78.608 3.66356L78.6151 0.22168ZM73.1829 1.7699C73.8883 7.8055 74.0436 13.4371 72.6185 17.9398C71.1299 22.7017 67.7649 26.2114 61.6835 27.3279L61.6729 29.2895L70.9112 29.2955C72.9219 27.4329 74.2905 24.4042 75.0877 21.5729C75.9271 18.6616 76.2095 15.9353 76.1952 15.0408L76.2095 15.0347C76.2095 14.0662 76.1812 11.5866 76.0331 9.11935C75.9624 7.89187 75.8566 6.66439 75.7014 5.6528C75.5744 4.68747 75.3628 3.89793 75.1935 3.53401L73.1829 1.7699ZM82.6575 1.8501L80.6539 3.59569C80.5057 3.94729 80.3294 4.71832 80.1954 5.66513C80.0684 6.67672 79.9697 7.89187 79.8992 9.11316C79.765 11.562 79.7438 14.0477 79.7438 15.0347L79.7369 15.0408C79.7369 15.929 80.0119 18.6554 80.8444 21.5606C81.6558 24.398 82.9929 27.2504 85.0035 29.1195L94.2699 28.767V27.3156C88.1744 26.1991 84.8022 22.6956 83.3066 17.9523C81.8744 13.4556 81.9945 7.84869 82.6575 1.8501ZM78.0084 4.73066C77.5922 4.72449 77.183 4.7985 76.8797 4.94653C76.9149 5.13158 76.9361 5.31355 76.9714 5.51094C77.0207 5.85018 77.063 6.20793 77.0982 6.57187L78.8196 6.57804C78.8549 6.2141 78.8902 5.86869 78.9326 5.53561C78.9609 5.32588 78.9962 5.12541 79.0243 4.92803C78.735 4.7985 78.3753 4.73066 78.0084 4.73066ZM77.2042 7.68831C77.2324 7.97205 77.2536 8.26195 77.2676 8.55186H78.6575C78.6785 8.26195 78.6997 7.97822 78.7209 7.69448L77.2042 7.68831ZM77.3382 9.66832C77.4511 11.9012 77.4793 14.0292 77.4793 14.973H78.4669C78.4669 14.0354 78.4881 11.9074 78.5939 9.67448L77.3382 9.66832ZM77.4159 16.0832C77.3947 16.3362 77.3735 16.6137 77.3382 16.9159V29.2832H78.5939V16.8605C78.5586 16.5767 78.5374 16.3177 78.5093 16.0772L77.4159 16.0832ZM79.878 22.6894V29.2771H80.8656L80.8515 25.2863C80.4635 24.4288 80.1461 23.553 79.878 22.6894ZM76.0541 22.7325C75.786 23.59 75.4545 24.4659 75.0806 25.3109V29.2771H76.0541V22.7325Z" fill="#0582FE"/>
<path fill-rule="evenodd" clip-rule="evenodd" d="M5.11948 18.7788C3.25706 23.4304 1.45382 27.9342 0.615234 30.1888H9.538C10.4565 30.1888 11.0689 29.8062 11.375 29.0415L13.4745 23.7257H28.2145L27.2618 25.9966L35.1833 20.9977L31.4127 15.5974L30.3578 18.2954H15.6177L18.1109 12.0237L16.3613 10.647C16.0114 10.3793 16.1863 9.88212 16.6675 9.88212H32.3699C33.2445 9.88212 33.5507 10.1881 33.2883 10.7999L31.994 14.1102L37.3066 21.1908L26.4459 27.941L25.5028 30.1888H34.5567C35.4752 30.1888 36.0877 29.8062 36.3938 29.0415C38.1434 24.3377 44.8791 6.93747 46.2787 3.41919H7.83217C7.35104 3.41919 7.17609 3.91634 7.56975 4.18403L10.2378 5.7902C9.23576 8.49827 7.1427 13.7258 5.11948 18.7788Z" fill="#0582FE"/>
<path d="M109.357 30.1567C106.514 30.1567 104.458 27.671 105.421 25.2999L113.075 5.71998C112.944 5.52878 111.632 4.76393 110.538 4.15205C110.144 3.88436 110.319 3.38721 110.801 3.38721H145.529L143.43 8.70287C143.124 9.42948 142.424 9.85014 141.593 9.85014H118.717C118.236 9.85014 118.061 10.3473 118.411 10.615L120.773 12.4888L120.117 14.0568H135.076L133.37 18.34C133.064 19.0664 132.364 19.4872 131.533 19.4872H115.918C115.437 19.4872 115.262 19.946 115.568 20.2137L117.187 21.514L116.312 23.6938H137.525L135.382 29.0094C135.076 29.7743 134.463 30.1567 133.545 30.1567H109.357Z" fill="#0582FE"/>
<path d="M70.9798 29.2957L61.3062 3.39355L48.7104 3.65786C47.6023 4.27454 51.8341 5.59612 51.8341 5.59612L60.1978 29.2957H70.9798Z" fill="#0582FE"/>
<path d="M96.2398 28.9647C97.6402 26.3398 106.258 3.46354 106.066 3.29537C105.892 3.14336 97.8461 3.25358 95.6379 3.28675C95.3008 3.29181 95.015 3.46421 94.9039 3.74258C93.5395 7.16172 84.8198 29.035 85.0059 29.1976C85.1869 29.3559 93.9705 29.2301 95.7701 29.2026C95.9786 29.1994 96.1517 29.13 96.2398 28.9647Z" fill="#0582FE"/>
</g>
<defs>
<clipPath id="clip0_52_1515">
<rect width="145.085" height="30.2316" fill="white" transform="translate(0.615234 0.0769043)"/>
</clipPath>
</defs>
</svg>
