<svg width="32" height="32" viewBox="0 0 32 32" fill="none" xmlns="http://www.w3.org/2000/svg">
<path d="M8.29688 16.5C6.12127 16.5 4.03477 15.6357 2.49639 14.0974C0.958005 12.559 0.09375 10.4725 0.09375 8.29688C0.09375 6.12127 0.958005 4.03477 2.49639 2.49639C4.03477 0.958005 6.12127 0.09375 8.29688 0.09375C10.4725 0.09375 12.559 0.958005 14.0974 2.49639C15.6357 4.03477 16.5 6.12127 16.5 8.29688C16.5 10.4725 15.6357 12.559 14.0974 14.0974C12.559 15.6357 10.4725 16.5 8.29688 16.5ZM9.39062 3.10156C9.39062 2.884 9.3042 2.67535 9.15036 2.52151C8.99652 2.36768 8.78787 2.28125 8.57031 2.28125C8.35275 2.28125 8.1441 2.36768 7.99026 2.52151C7.83643 2.67535 7.75 2.884 7.75 3.10156V7.20312H3.64844C3.43088 7.20312 3.22223 7.28955 3.06839 7.44339C2.91455 7.59723 2.82812 7.80588 2.82812 8.02344C2.82812 8.241 2.91455 8.44965 3.06839 8.60349C3.22223 8.75732 3.43088 8.84375 3.64844 8.84375H7.75V12.9453C7.75 13.1629 7.83643 13.3715 7.99026 13.5254C8.1441 13.6792 8.35275 13.7656 8.57031 13.7656C8.78787 13.7656 8.99652 13.6792 9.15036 13.5254C9.3042 13.3715 9.39062 13.1629 9.39062 12.9453V8.84375H13.4922C13.7097 8.84375 13.9184 8.75732 14.0722 8.60349C14.2261 8.44965 14.3125 8.241 14.3125 8.02344C14.3125 7.80588 14.2261 7.59723 14.0722 7.44339C13.9184 7.28955 13.7097 7.20312 13.4922 7.20312H9.39062V3.10156ZM3.375 16.8237C3.72646 17.0272 4.09104 17.2087 4.46875 17.3684V26.8906C4.46875 27.5359 4.62844 28.1462 4.91172 28.68L15.6523 17.8464C15.9065 17.5901 16.209 17.3867 16.5422 17.2479C16.8754 17.1091 17.2328 17.0376 17.5938 17.0376C17.9547 17.0376 18.3121 17.1091 18.6453 17.2479C18.9785 17.3867 19.281 17.5901 19.5352 17.8464L30.2758 28.68C30.567 28.1285 30.7191 27.5143 30.7188 26.8906V8.29688C30.7188 7.28159 30.3154 6.30789 29.5975 5.58998C28.8796 4.87207 27.9059 4.46875 26.8906 4.46875H17.3684C17.2097 4.09324 17.0278 3.72795 16.8237 3.375H26.8906C28.196 3.375 29.4479 3.89355 30.3709 4.81658C31.2939 5.73961 31.8125 6.99151 31.8125 8.29688V26.8906C31.8125 28.196 31.2939 29.4479 30.3709 30.3709C29.4479 31.2939 28.196 31.8125 26.8906 31.8125H8.29688C6.99151 31.8125 5.73961 31.2939 4.81658 30.3709C3.89355 29.4479 3.375 28.196 3.375 26.8906V16.8237ZM8.29688 30.7188H26.8906C27.9603 30.7188 28.9272 30.2812 29.6217 29.5736L18.7586 18.6164C18.6061 18.4626 18.4246 18.3406 18.2247 18.2573C18.0248 18.174 17.8103 18.1311 17.5938 18.1311C17.3772 18.1311 17.1627 18.174 16.9628 18.2573C16.7629 18.3406 16.5814 18.4626 16.4289 18.6164L5.56578 29.5736C5.92214 29.9363 6.34719 30.2243 6.81611 30.421C7.28502 30.6176 7.78841 30.7188 8.29688 30.7188ZM27.4375 12.125C27.4375 13.1403 27.0342 14.114 26.3163 14.8319C25.5984 15.5498 24.6247 15.9531 23.6094 15.9531C22.5941 15.9531 21.6204 15.5498 20.9025 14.8319C20.1846 14.114 19.7812 13.1403 19.7812 12.125C19.7812 11.1097 20.1846 10.136 20.9025 9.41811C21.6204 8.70019 22.5941 8.29688 23.6094 8.29688C24.6247 8.29688 25.5984 8.70019 26.3163 9.41811C27.0342 10.136 27.4375 11.1097 27.4375 12.125ZM26.3438 12.125C26.3438 11.3998 26.0557 10.7043 25.5429 10.1915C25.0301 9.67871 24.3346 9.39062 23.6094 9.39062C22.8842 9.39062 22.1887 9.67871 21.6759 10.1915C21.1631 10.7043 20.875 11.3998 20.875 12.125C20.875 12.8502 21.1631 13.5457 21.6759 14.0585C22.1887 14.5713 22.8842 14.8594 23.6094 14.8594C24.3346 14.8594 25.0301 14.5713 25.5429 14.0585C26.0557 13.5457 26.3438 12.8502 26.3438 12.125Z" fill="#0582FE"/>
</svg>
