<svg width="214" height="24" viewBox="0 0 214 24" fill="none" xmlns="http://www.w3.org/2000/svg">
<path d="M11.4996 2H11.7317C14.5027 2 15.8899 2 16.8521 2.6783C17.1275 2.8721 17.3723 3.1033 17.5788 3.36255C18.2996 4.26865 18.2996 5.57255 18.2996 8.18205V10.3453C18.2996 12.8639 18.2996 14.1235 17.901 15.1291C17.2601 16.7466 15.9052 18.0217 14.1865 18.6252C13.118 19 11.781 19 9.10346 19C7.57516 19 6.81016 19 6.19986 18.7858C5.21811 18.4407 4.44376 17.7123 4.07741 16.7883C3.84961 16.2137 3.84961 15.4937 3.84961 14.0547V10.5" stroke="#0D99FF" stroke-width="1.275" stroke-linecap="round" stroke-linejoin="round"/>
<path d="M18.3 10.5C18.3 11.2514 18.0015 11.972 17.4702 12.5033C16.9389 13.0346 16.2183 13.3331 15.467 13.3331C14.9009 13.3331 14.2336 13.2345 13.6837 13.3815C13.4435 13.4461 13.2244 13.5727 13.0486 13.7486C12.8727 13.9244 12.7461 14.1435 12.6815 14.3837C12.5345 14.9336 12.6331 15.6009 12.6331 16.167C12.6331 16.539 12.5598 16.9074 12.4174 17.2511C12.275 17.5948 12.0663 17.9071 11.8033 18.1702C11.5402 18.4333 11.2279 18.642 10.8842 18.7843C10.5404 18.9267 10.172 19 9.8 19M9.8 5.4H3M6.4 2V8.8" stroke="#0D99FF" stroke-width="1.275" stroke-linecap="round" stroke-linejoin="round"/>
<path d="M39.7759 11.1692H36.1852L35.5237 13H34.3898L37.3663 4.81455H38.6065L41.5713 13H40.4373L39.7759 11.1692ZM39.4688 10.2951L37.9805 6.13745L36.4923 10.2951H39.4688ZM42.4669 9.73999C42.4669 9.07854 42.6008 8.49977 42.8685 8.00368C43.1362 7.49972 43.5024 7.10994 43.967 6.83433C44.4394 6.55873 44.967 6.42093 45.5497 6.42093C46.0537 6.42093 46.5222 6.53904 46.9553 6.77527C47.3884 7.00363 47.7191 7.3068 47.9475 7.68477V4.2594H49.0342V13H47.9475V11.7834C47.7349 12.1692 47.4199 12.4882 47.0026 12.7401C46.5852 12.9843 46.097 13.1063 45.5379 13.1063C44.9631 13.1063 44.4394 12.9646 43.967 12.6811C43.5024 12.3976 43.1362 11.9999 42.8685 11.4881C42.6008 10.9763 42.4669 10.3936 42.4669 9.73999ZM47.9475 9.7518C47.9475 9.26359 47.8491 8.83837 47.6522 8.47615C47.4553 8.11393 47.1876 7.83832 46.849 7.64933C46.5183 7.45247 46.1521 7.35404 45.7505 7.35404C45.3489 7.35404 44.9828 7.44854 44.6521 7.63752C44.3213 7.82651 44.0575 8.10211 43.8607 8.46434C43.6638 8.82656 43.5654 9.25178 43.5654 9.73999C43.5654 10.2361 43.6638 10.6692 43.8607 11.0393C44.0575 11.4015 44.3213 11.681 44.6521 11.8779C44.9828 12.0669 45.3489 12.1614 45.7505 12.1614C46.1521 12.1614 46.5183 12.0669 46.849 11.8779C47.1876 11.681 47.4553 11.4015 47.6522 11.0393C47.8491 10.6692 47.9475 10.24 47.9475 9.7518ZM50.449 9.73999C50.449 9.07854 50.5828 8.49977 50.8506 8.00368C51.1183 7.49972 51.4845 7.10994 51.9491 6.83433C52.4215 6.55873 52.9491 6.42093 53.5318 6.42093C54.0358 6.42093 54.5043 6.53904 54.9374 6.77527C55.3705 7.00363 55.7012 7.3068 55.9296 7.68477V4.2594H57.0162V13H55.9296V11.7834C55.717 12.1692 55.402 12.4882 54.9846 12.7401C54.5673 12.9843 54.0791 13.1063 53.52 13.1063C52.9452 13.1063 52.4215 12.9646 51.9491 12.6811C51.4845 12.3976 51.1183 11.9999 50.8506 11.4881C50.5828 10.9763 50.449 10.3936 50.449 9.73999ZM55.9296 9.7518C55.9296 9.26359 55.8311 8.83837 55.6343 8.47615C55.4374 8.11393 55.1697 7.83832 54.8311 7.64933C54.5004 7.45247 54.1342 7.35404 53.7326 7.35404C53.331 7.35404 52.9649 7.44854 52.6341 7.63752C52.3034 7.82651 52.0396 8.10211 51.8427 8.46434C51.6459 8.82656 51.5475 9.25178 51.5475 9.73999C51.5475 10.2361 51.6459 10.6692 51.8427 11.0393C52.0396 11.4015 52.3034 11.681 52.6341 11.8779C52.9649 12.0669 53.331 12.1614 53.7326 12.1614C54.1342 12.1614 54.5004 12.0669 54.8311 11.8779C55.1697 11.681 55.4374 11.4015 55.6343 11.0393C55.8311 10.6692 55.9296 10.24 55.9296 9.7518ZM63.2927 7.4131V11.2283C63.2927 11.5432 63.3597 11.7677 63.4935 11.9015C63.6274 12.0275 63.8597 12.0905 64.1904 12.0905H64.9818V13H64.0132C63.4148 13 62.9659 12.8622 62.6667 12.5866C62.3675 12.311 62.2179 11.8582 62.2179 11.2283V7.4131H61.3792V6.52723H62.2179V4.89723H63.2927V6.52723H64.9818V7.4131H63.2927ZM69.4969 6.40911C69.9851 6.40911 70.4261 6.51542 70.8198 6.72803C71.2135 6.93276 71.5206 7.2438 71.7411 7.66115C71.9694 8.07849 72.0836 8.58639 72.0836 9.18485V13H71.0206V9.3384C71.0206 8.69269 70.8592 8.20054 70.5363 7.86194C70.2135 7.51547 69.7725 7.34223 69.2134 7.34223C68.6464 7.34223 68.1937 7.51941 67.8551 7.87376C67.5243 8.2281 67.359 8.74388 67.359 9.42108V13H66.2841V4.2594H67.359V7.44854C67.5716 7.11781 67.8629 6.86189 68.233 6.68078C68.611 6.49967 69.0323 6.40911 69.4969 6.40911ZM79.7452 9.51557C79.7452 9.72031 79.7334 9.93685 79.7098 10.1652H74.5363C74.5757 10.803 74.7922 11.3031 75.1859 11.6653C75.5875 12.0196 76.0718 12.1968 76.6388 12.1968C77.1033 12.1968 77.4892 12.0905 77.7963 11.8779C78.1113 11.6574 78.3318 11.3661 78.4577 11.0038H79.6153C79.4421 11.6259 79.0956 12.1338 78.5759 12.5275C78.0562 12.9134 77.4105 13.1063 76.6388 13.1063C76.0246 13.1063 75.4733 12.9685 74.9851 12.6929C74.5048 12.4173 74.1268 12.0275 73.8512 11.5235C73.5756 11.0117 73.4378 10.4211 73.4378 9.7518C73.4378 9.08248 73.5717 8.49583 73.8394 7.99187C74.1071 7.48791 74.4812 7.10206 74.9615 6.83433C75.4497 6.55873 76.0088 6.42093 76.6388 6.42093C77.253 6.42093 77.7963 6.55479 78.2688 6.82252C78.7412 7.09025 79.1035 7.46035 79.3554 7.93281C79.6153 8.3974 79.7452 8.92499 79.7452 9.51557ZM78.6349 9.29115C78.6349 8.88168 78.5444 8.53127 78.3633 8.23992C78.1821 7.94069 77.9341 7.71627 77.6191 7.56665C77.312 7.40917 76.9695 7.33042 76.5915 7.33042C76.0482 7.33042 75.5836 7.50366 75.1977 7.85013C74.8198 8.19661 74.6032 8.67695 74.5481 9.29115H78.6349ZM83.9114 9.7518C83.9114 9.08248 84.0453 8.49977 84.313 8.00368C84.5807 7.49972 84.9508 7.10994 85.4233 6.83433C85.9036 6.55873 86.4509 6.42093 87.0651 6.42093C87.8604 6.42093 88.514 6.61385 89.0258 6.9997C89.5455 7.38554 89.8881 7.921 90.0534 8.60608H88.8959C88.7857 8.21236 88.5691 7.90132 88.2463 7.67296C87.9313 7.4446 87.5376 7.33042 87.0651 7.33042C86.4509 7.33042 85.9548 7.54303 85.5768 7.96825C85.1989 8.38559 85.0099 8.98011 85.0099 9.7518C85.0099 10.5314 85.1989 11.1338 85.5768 11.559C85.9548 11.9842 86.4509 12.1968 87.0651 12.1968C87.5376 12.1968 87.9313 12.0866 88.2463 11.8661C88.5612 11.6456 88.7778 11.3306 88.8959 10.9212H90.0534C89.8802 11.5826 89.5337 12.1141 89.014 12.5157C88.4943 12.9094 87.8447 13.1063 87.0651 13.1063C86.4509 13.1063 85.9036 12.9685 85.4233 12.6929C84.9508 12.4173 84.5807 12.0275 84.313 11.5235C84.0453 11.0196 83.9114 10.429 83.9114 9.7518ZM94.3106 13.1063C93.7043 13.1063 93.1531 12.9685 92.657 12.6929C92.1688 12.4173 91.7829 12.0275 91.4994 11.5235C91.2238 11.0117 91.086 10.4211 91.086 9.7518C91.086 9.09035 91.2278 8.50765 91.5113 8.00368C91.8026 7.49185 92.1963 7.10206 92.6924 6.83433C93.1885 6.55873 93.7436 6.42093 94.3579 6.42093C94.9721 6.42093 95.5272 6.55873 96.0233 6.83433C96.5194 7.10206 96.9092 7.48791 97.1926 7.99187C97.484 8.49583 97.6297 9.08248 97.6297 9.7518C97.6297 10.4211 97.4801 11.0117 97.1808 11.5235C96.8895 12.0275 96.4918 12.4173 95.9879 12.6929C95.4839 12.9685 94.9248 13.1063 94.3106 13.1063ZM94.3106 12.1614C94.6965 12.1614 95.0587 12.0708 95.3973 11.8897C95.7359 11.7086 96.0075 11.4369 96.2123 11.0747C96.4249 10.7125 96.5312 10.2715 96.5312 9.7518C96.5312 9.23209 96.4288 8.79112 96.2241 8.4289C96.0194 8.06668 95.7516 7.79895 95.4209 7.62571C95.0902 7.4446 94.7319 7.35404 94.346 7.35404C93.9523 7.35404 93.5901 7.4446 93.2594 7.62571C92.9365 7.79895 92.6767 8.06668 92.4798 8.4289C92.2829 8.79112 92.1845 9.23209 92.1845 9.7518C92.1845 10.2794 92.279 10.7243 92.468 11.0865C92.6649 11.4487 92.9247 11.7204 93.2476 11.9015C93.5704 12.0748 93.9248 12.1614 94.3106 12.1614ZM106.827 6.40911C107.331 6.40911 107.78 6.51542 108.173 6.72803C108.567 6.93276 108.878 7.2438 109.106 7.66115C109.335 8.07849 109.449 8.58639 109.449 9.18485V13H108.386V9.3384C108.386 8.69269 108.224 8.20054 107.902 7.86194C107.587 7.51547 107.158 7.34223 106.614 7.34223C106.055 7.34223 105.61 7.52334 105.279 7.88557C104.949 8.23992 104.783 8.75569 104.783 9.43289V13H103.72V9.3384C103.72 8.69269 103.559 8.20054 103.236 7.86194C102.921 7.51547 102.492 7.34223 101.949 7.34223C101.389 7.34223 100.945 7.52334 100.614 7.88557C100.283 8.23992 100.118 8.75569 100.118 9.43289V13H99.0429V6.52723H100.118V7.46035C100.33 7.12175 100.614 6.86189 100.968 6.68078C101.33 6.49967 101.728 6.40911 102.161 6.40911C102.705 6.40911 103.185 6.53117 103.602 6.77527C104.02 7.01938 104.331 7.37767 104.535 7.85013C104.716 7.39342 105.016 7.03907 105.433 6.78709C105.85 6.5351 106.315 6.40911 106.827 6.40911ZM112.287 7.7202C112.5 7.35011 112.815 7.043 113.232 6.7989C113.657 6.54692 114.149 6.42093 114.708 6.42093C115.283 6.42093 115.803 6.55873 116.267 6.83433C116.74 7.10994 117.11 7.49972 117.378 8.00368C117.646 8.49977 117.779 9.07854 117.779 9.73999C117.779 10.3936 117.646 10.9763 117.378 11.4881C117.11 11.9999 116.74 12.3976 116.267 12.6811C115.803 12.9646 115.283 13.1063 114.708 13.1063C114.157 13.1063 113.669 12.9843 113.244 12.7401C112.826 12.4882 112.507 12.1771 112.287 11.807V16.071H111.212V6.52723H112.287V7.7202ZM116.681 9.73999C116.681 9.25178 116.582 8.82656 116.386 8.46434C116.189 8.10211 115.921 7.82651 115.582 7.63752C115.252 7.44854 114.886 7.35404 114.484 7.35404C114.09 7.35404 113.724 7.45247 113.385 7.64933C113.055 7.83832 112.787 8.11786 112.582 8.48796C112.385 8.85018 112.287 9.27146 112.287 9.7518C112.287 10.24 112.385 10.6692 112.582 11.0393C112.787 11.4015 113.055 11.681 113.385 11.8779C113.724 12.0669 114.09 12.1614 114.484 12.1614C114.886 12.1614 115.252 12.0669 115.582 11.8779C115.921 11.681 116.189 11.4015 116.386 11.0393C116.582 10.6692 116.681 10.2361 116.681 9.73999ZM118.793 9.73999C118.793 9.07854 118.926 8.49977 119.194 8.00368C119.462 7.49972 119.828 7.10994 120.293 6.83433C120.765 6.55873 121.289 6.42093 121.864 6.42093C122.431 6.42093 122.923 6.54298 123.34 6.78709C123.757 7.03119 124.068 7.3383 124.273 7.70839V6.52723H125.36V13H124.273V11.7952C124.061 12.1732 123.742 12.4882 123.316 12.7401C122.899 12.9843 122.411 13.1063 121.852 13.1063C121.277 13.1063 120.757 12.9646 120.293 12.6811C119.828 12.3976 119.462 11.9999 119.194 11.4881C118.926 10.9763 118.793 10.3936 118.793 9.73999ZM124.273 9.7518C124.273 9.26359 124.175 8.83837 123.978 8.47615C123.781 8.11393 123.513 7.83832 123.175 7.64933C122.844 7.45247 122.478 7.35404 122.076 7.35404C121.675 7.35404 121.308 7.44854 120.978 7.63752C120.647 7.82651 120.383 8.10211 120.186 8.46434C119.99 8.82656 119.891 9.25178 119.891 9.73999C119.891 10.2361 119.99 10.6692 120.186 11.0393C120.383 11.4015 120.647 11.681 120.978 11.8779C121.308 12.0669 121.675 12.1614 122.076 12.1614C122.478 12.1614 122.844 12.0669 123.175 11.8779C123.513 11.681 123.781 11.4015 123.978 11.0393C124.175 10.6692 124.273 10.24 124.273 9.7518ZM130.33 6.40911C131.117 6.40911 131.755 6.64928 132.243 7.12962C132.732 7.60209 132.976 8.28716 132.976 9.18485V13H131.913V9.3384C131.913 8.69269 131.751 8.20054 131.428 7.86194C131.106 7.51547 130.665 7.34223 130.106 7.34223C129.539 7.34223 129.086 7.51941 128.747 7.87376C128.416 8.2281 128.251 8.74388 128.251 9.42108V13H127.176V6.52723H128.251V7.44854C128.464 7.11781 128.751 6.86189 129.113 6.68078C129.483 6.49967 129.889 6.40911 130.33 6.40911ZM140.307 6.52723L136.409 16.0474H135.299L136.574 12.9291L133.964 6.52723H135.157L137.188 11.7716L139.196 6.52723H140.307ZM141.552 4.7673H142.745L141.612 7.44854H140.856L141.552 4.7673ZM146.262 13.1063C145.766 13.1063 145.321 13.0236 144.928 12.8583C144.534 12.685 144.223 12.4488 143.995 12.1496C143.766 11.8425 143.64 11.492 143.617 11.0983H144.727C144.758 11.4212 144.908 11.685 145.176 11.8897C145.451 12.0944 145.81 12.1968 146.251 12.1968C146.66 12.1968 146.983 12.1063 147.219 11.9251C147.455 11.744 147.573 11.5157 147.573 11.2401C147.573 10.9566 147.447 10.7479 147.195 10.6141C146.944 10.4723 146.554 10.3345 146.026 10.2006C145.546 10.0747 145.152 9.94866 144.845 9.82267C144.546 9.68881 144.286 9.49589 144.065 9.2439C143.853 8.98405 143.746 8.64545 143.746 8.2281C143.746 7.89738 143.845 7.59421 144.042 7.31861C144.239 7.043 144.518 6.82646 144.88 6.66897C145.243 6.50361 145.656 6.42093 146.121 6.42093C146.837 6.42093 147.416 6.60204 147.857 6.96426C148.298 7.32648 148.534 7.82257 148.566 8.45253H147.491C147.467 8.11393 147.329 7.84226 147.077 7.63752C146.833 7.43279 146.503 7.33042 146.085 7.33042C145.699 7.33042 145.392 7.4131 145.164 7.57846C144.936 7.74383 144.821 7.96037 144.821 8.2281C144.821 8.44071 144.888 8.61789 145.022 8.75963C145.164 8.89349 145.337 9.00373 145.542 9.09035C145.754 9.1691 146.046 9.25965 146.416 9.36202C146.881 9.48801 147.258 9.614 147.55 9.73999C147.841 9.85811 148.089 10.0392 148.294 10.2833C148.507 10.5274 148.617 10.8463 148.625 11.2401C148.625 11.5944 148.526 11.9133 148.329 12.1968C148.133 12.4803 147.853 12.7047 147.491 12.8701C147.136 13.0276 146.727 13.1063 146.262 13.1063ZM152.889 9.7518C152.889 9.08248 153.023 8.49977 153.291 8.00368C153.559 7.49972 153.929 7.10994 154.401 6.83433C154.882 6.55873 155.429 6.42093 156.043 6.42093C156.838 6.42093 157.492 6.61385 158.004 6.9997C158.524 7.38554 158.866 7.921 159.031 8.60608H157.874C157.764 8.21236 157.547 7.90132 157.224 7.67296C156.909 7.4446 156.516 7.33042 156.043 7.33042C155.429 7.33042 154.933 7.54303 154.555 7.96825C154.177 8.38559 153.988 8.98011 153.988 9.7518C153.988 10.5314 154.177 11.1338 154.555 11.559C154.933 11.9842 155.429 12.1968 156.043 12.1968C156.516 12.1968 156.909 12.0866 157.224 11.8661C157.539 11.6456 157.756 11.3306 157.874 10.9212H159.031C158.858 11.5826 158.512 12.1141 157.992 12.5157C157.472 12.9094 156.823 13.1063 156.043 13.1063C155.429 13.1063 154.882 12.9685 154.401 12.6929C153.929 12.4173 153.559 12.0275 153.291 11.5235C153.023 11.0196 152.889 10.429 152.889 9.7518ZM160.064 9.73999C160.064 9.07854 160.198 8.49977 160.466 8.00368C160.733 7.49972 161.1 7.10994 161.564 6.83433C162.037 6.55873 162.56 6.42093 163.135 6.42093C163.702 6.42093 164.194 6.54298 164.612 6.78709C165.029 7.03119 165.34 7.3383 165.545 7.70839V6.52723H166.631V13H165.545V11.7952C165.332 12.1732 165.013 12.4882 164.588 12.7401C164.171 12.9843 163.682 13.1063 163.123 13.1063C162.548 13.1063 162.029 12.9646 161.564 12.6811C161.1 12.3976 160.733 11.9999 160.466 11.4881C160.198 10.9763 160.064 10.3936 160.064 9.73999ZM165.545 9.7518C165.545 9.26359 165.446 8.83837 165.249 8.47615C165.053 8.11393 164.785 7.83832 164.446 7.64933C164.115 7.45247 163.749 7.35404 163.348 7.35404C162.946 7.35404 162.58 7.44854 162.249 7.63752C161.918 7.82651 161.655 8.10211 161.458 8.46434C161.261 8.82656 161.163 9.25178 161.163 9.73999C161.163 10.2361 161.261 10.6692 161.458 11.0393C161.655 11.4015 161.918 11.681 162.249 11.8779C162.58 12.0669 162.946 12.1614 163.348 12.1614C163.749 12.1614 164.115 12.0669 164.446 11.8779C164.785 11.681 165.053 11.4015 165.249 11.0393C165.446 10.6692 165.545 10.24 165.545 9.7518ZM169.759 7.4131V11.2283C169.759 11.5432 169.826 11.7677 169.96 11.9015C170.093 12.0275 170.326 12.0905 170.657 12.0905H171.448V13H170.479C169.881 13 169.432 12.8622 169.133 12.5866C168.834 12.311 168.684 11.8582 168.684 11.2283V7.4131H167.845V6.52723H168.684V4.89723H169.759V6.52723H171.448V7.4131H169.759ZM172.349 9.73999C172.349 9.07854 172.482 8.49977 172.75 8.00368C173.018 7.49972 173.384 7.10994 173.849 6.83433C174.321 6.55873 174.845 6.42093 175.42 6.42093C175.987 6.42093 176.479 6.54298 176.896 6.78709C177.313 7.03119 177.624 7.3383 177.829 7.70839V6.52723H178.916V13H177.829V11.7952C177.617 12.1732 177.298 12.4882 176.872 12.7401C176.455 12.9843 175.967 13.1063 175.408 13.1063C174.833 13.1063 174.313 12.9646 173.849 12.6811C173.384 12.3976 173.018 11.9999 172.75 11.4881C172.482 10.9763 172.349 10.3936 172.349 9.73999ZM177.829 9.7518C177.829 9.26359 177.731 8.83837 177.534 8.47615C177.337 8.11393 177.069 7.83832 176.731 7.64933C176.4 7.45247 176.034 7.35404 175.632 7.35404C175.231 7.35404 174.864 7.44854 174.534 7.63752C174.203 7.82651 173.939 8.10211 173.742 8.46434C173.546 8.82656 173.447 9.25178 173.447 9.73999C173.447 10.2361 173.546 10.6692 173.742 11.0393C173.939 11.4015 174.203 11.681 174.534 11.8779C174.864 12.0669 175.231 12.1614 175.632 12.1614C176.034 12.1614 176.4 12.0669 176.731 11.8779C177.069 11.681 177.337 11.4015 177.534 11.0393C177.731 10.6692 177.829 10.24 177.829 9.7518ZM181.807 4.2594V13H180.732V4.2594H181.807ZM186.462 13.1063C185.856 13.1063 185.304 12.9685 184.808 12.6929C184.32 12.4173 183.934 12.0275 183.651 11.5235C183.375 11.0117 183.237 10.4211 183.237 9.7518C183.237 9.09035 183.379 8.50765 183.663 8.00368C183.954 7.49185 184.348 7.10206 184.844 6.83433C185.34 6.55873 185.895 6.42093 186.509 6.42093C187.123 6.42093 187.679 6.55873 188.175 6.83433C188.671 7.10206 189.061 7.48791 189.344 7.99187C189.635 8.49583 189.781 9.08248 189.781 9.7518C189.781 10.4211 189.631 11.0117 189.332 11.5235C189.041 12.0275 188.643 12.4173 188.139 12.6929C187.635 12.9685 187.076 13.1063 186.462 13.1063ZM186.462 12.1614C186.848 12.1614 187.21 12.0708 187.549 11.8897C187.887 11.7086 188.159 11.4369 188.364 11.0747C188.576 10.7125 188.683 10.2715 188.683 9.7518C188.683 9.23209 188.58 8.79112 188.376 8.4289C188.171 8.06668 187.903 7.79895 187.572 7.62571C187.242 7.4446 186.883 7.35404 186.497 7.35404C186.104 7.35404 185.742 7.4446 185.411 7.62571C185.088 7.79895 184.828 8.06668 184.631 8.4289C184.434 8.79112 184.336 9.23209 184.336 9.7518C184.336 10.2794 184.43 10.7243 184.619 11.0865C184.816 11.4487 185.076 11.7204 185.399 11.9015C185.722 12.0748 186.076 12.1614 186.462 12.1614ZM193.864 6.42093C194.423 6.42093 194.911 6.54298 195.328 6.78709C195.754 7.03119 196.069 7.3383 196.273 7.70839V6.52723H197.36V13.1417C197.36 13.7323 197.234 14.256 196.982 14.7127C196.73 15.1773 196.368 15.5395 195.895 15.7994C195.431 16.0592 194.887 16.1891 194.265 16.1891C193.415 16.1891 192.706 15.9883 192.139 15.5867C191.572 15.1852 191.238 14.6379 191.135 13.9449H192.198C192.316 14.3387 192.561 14.6536 192.931 14.8899C193.301 15.134 193.746 15.256 194.265 15.256C194.856 15.256 195.336 15.071 195.706 14.7009C196.084 14.3308 196.273 13.8111 196.273 13.1417V11.7834C196.061 12.1614 195.746 12.4764 195.328 12.7283C194.911 12.9803 194.423 13.1063 193.864 13.1063C193.289 13.1063 192.765 12.9646 192.293 12.6811C191.828 12.3976 191.462 11.9999 191.194 11.4881C190.927 10.9763 190.793 10.3936 190.793 9.73999C190.793 9.07854 190.927 8.49977 191.194 8.00368C191.462 7.49972 191.828 7.10994 192.293 6.83433C192.765 6.55873 193.289 6.42093 193.864 6.42093ZM196.273 9.7518C196.273 9.26359 196.175 8.83837 195.978 8.47615C195.781 8.11393 195.513 7.83832 195.175 7.64933C194.844 7.45247 194.478 7.35404 194.076 7.35404C193.675 7.35404 193.309 7.44854 192.978 7.63752C192.647 7.82651 192.383 8.10211 192.187 8.46434C191.99 8.82656 191.891 9.25178 191.891 9.73999C191.891 10.2361 191.99 10.6692 192.187 11.0393C192.383 11.4015 192.647 11.681 192.978 11.8779C193.309 12.0669 193.675 12.1614 194.076 12.1614C194.478 12.1614 194.844 12.0669 195.175 11.8779C195.513 11.681 195.781 11.4015 195.978 11.0393C196.175 10.6692 196.273 10.24 196.273 9.7518ZM204.917 6.52723V13H203.842V12.0433C203.637 12.374 203.35 12.6338 202.98 12.8228C202.618 13.0039 202.216 13.0945 201.775 13.0945C201.271 13.0945 200.818 12.9921 200.417 12.7874C200.015 12.5748 199.696 12.2598 199.46 11.8425C199.232 11.4251 199.117 10.9172 199.117 10.3188V6.52723H200.18V10.177C200.18 10.8148 200.342 11.307 200.665 11.6535C200.988 11.9921 201.428 12.1614 201.988 12.1614C202.562 12.1614 203.015 11.9842 203.346 11.6299C203.677 11.2755 203.842 10.7597 203.842 10.0825V6.52723H204.917ZM212.638 9.51557C212.638 9.72031 212.626 9.93685 212.602 10.1652H207.429C207.468 10.803 207.685 11.3031 208.078 11.6653C208.48 12.0196 208.964 12.1968 209.531 12.1968C209.996 12.1968 210.381 12.0905 210.689 11.8779C211.004 11.6574 211.224 11.3661 211.35 11.0038H212.508C212.334 11.6259 211.988 12.1338 211.468 12.5275C210.948 12.9134 210.303 13.1063 209.531 13.1063C208.917 13.1063 208.366 12.9685 207.877 12.6929C207.397 12.4173 207.019 12.0275 206.744 11.5235C206.468 11.0117 206.33 10.4211 206.33 9.7518C206.33 9.08248 206.464 8.49583 206.732 7.99187C206.999 7.48791 207.373 7.10206 207.854 6.83433C208.342 6.55873 208.901 6.42093 209.531 6.42093C210.145 6.42093 210.689 6.55479 211.161 6.82252C211.634 7.09025 211.996 7.46035 212.248 7.93281C212.508 8.3974 212.638 8.92499 212.638 9.51557ZM211.527 9.29115C211.527 8.88168 211.437 8.53127 211.256 8.23992C211.074 7.94069 210.826 7.71627 210.511 7.56665C210.204 7.40917 209.862 7.33042 209.484 7.33042C208.94 7.33042 208.476 7.50366 208.09 7.85013C207.712 8.19661 207.496 8.67695 207.44 9.29115H211.527Z" fill="#0582FE"/>
</svg>
